# xmcd
#
# Track frame offsets:
#	150
#	15078
#	29712
#	46004
#	62078
#	79785
#	94233
#	113415
#	129145
#	142775
#	159723
#	181882
#	196820
#
# Disc length: 2959 seconds
#
# Revision: 1
# Processed by: cddbd v1.5.2PL0 Copyright (c) Steve Scherf et al.
# Submitted via: audiograbber 1.83.01
#
DISCID=940b8d0d
DTITLE=Darius Rucker - When Was the Last Time
DYEAR=2017
DGENRE=Country
TTITLE0=For The First Time
TTITLE1=Bring It On
TTITLE2=Life's Too Short
TTITLE3=If I Told You
TTITLE4=Don't
TTITLE5=Twenty Something
TTITLE6=Straight To Hell
TTITLE7=Count The Beers
TTITLE8=Another Night With You
TTITLE9=Hands On Me
TTITLE10=She
TTITLE11=Story To Tell
TTITLE12=Straight To Hell
EXTD=
EXTT0=
EXTT1=
EXTT2=
EXTT3=
EXTT4=
EXTT5=
EXTT6=
EXTT7=
EXTT8=
EXTT9=
EXTT10=
EXTT11=
EXTT12=
PLAYORDER=
